<svg width="20" height="21" viewBox="0 0 20 21" fill="none" xmlns="http://www.w3.org/2000/svg">
<path d="M18.75 9.15527H11.25V1.65527C11.25 0.964922 10.6904 0.405273 10 0.405273C9.30965 0.405273 8.75 0.964922 8.75 1.65527V9.15527H1.25C0.559648 9.15527 0 9.71492 0 10.4053C0 11.0956 0.559648 11.6553 1.25 11.6553H8.75V19.1553C8.75 19.8456 9.30965 20.4053 10 20.4053C10.6904 20.4053 11.25 19.8456 11.25 19.1553V11.6553H18.75C19.4404 11.6553 20 11.0956 20 10.4053C20 9.71492 19.4404 9.15527 18.75 9.15527Z" fill="#4A7DFF"/>
</svg>
